<?xml version="1.0" encoding="UTF-8" standalone="no"?>
<!DOCTYPE svg PUBLIC "-//W3C//DTD SVG 1.1//EN"
 "http://www.w3.org/Graphics/SVG/1.1/DTD/svg11.dtd">
<!-- Generated by graphviz version 16.1.0 (20260904.0139)
 -->
<!-- Title: ER&#45;04 Data da coleta (DD/MM/AAAA com dia compatível com o mês) Pages: 1 -->
<svg width="1382pt" height="290pt"
 viewBox="0.00 0.00 1382.00 290.00" xmlns="http://www.w3.org/2000/svg" xmlns:xlink="http://www.w3.org/1999/xlink">
<g id="graph0" class="graph" transform="scale(1 1) rotate(0) translate(4 286.4)">
<title>ER&#45;04 Data da coleta (DD/MM/AAAA com dia compatível com o mês)</title>
<polygon fill="white" stroke="none" points="-4,4 -4,-286.4 1377.85,-286.4 1377.85,4 -4,4"/>
<!-- inicio -->
<g id="node1" class="node">
<title>inicio</title>
<text xml:space="preserve" text-anchor="middle" x="19.62" y="-117.33" font-family="Helvetica,sans-Serif" font-size="10.00">início</text>
</g>
<!-- q0 -->
<g id="node2" class="node">
<title>q0</title>
<ellipse fill="none" stroke="black" cx="82.45" cy="-121.2" rx="16.2" ry="16.2"/>
<text xml:space="preserve" text-anchor="middle" x="82.45" y="-116.75" font-family="Helvetica,sans-Serif" font-size="11.00">q0</text>
</g>
<!-- inicio&#45;&gt;q0 -->
<g id="edge1" class="edge">
<title>inicio&#45;&gt;q0</title>
<path fill="none" stroke="black" d="M39.21,-121.2C44.93,-121.2 51.32,-121.2 57.37,-121.2"/>
<polygon fill="black" stroke="black" points="57.34,-123.65 64.34,-121.2 57.34,-118.75 57.34,-123.65"/>
</g>
<!-- q1 -->
<g id="node4" class="node">
<title>q1</title>
<ellipse fill="none" stroke="black" cx="146.85" cy="-171.2" rx="16.2" ry="16.2"/>
<text xml:space="preserve" text-anchor="middle" x="146.85" y="-166.75" font-family="Helvetica,sans-Serif" font-size="11.00">q1</text>
</g>
<!-- q0&#45;&gt;q1 -->
<g id="edge2" class="edge">
<title>q0&#45;&gt;q1</title>
<path fill="none" stroke="#6b7280" stroke-dasharray="5,2" d="M95.78,-131.08C104.67,-138.2 116.83,-147.95 126.94,-156.05"/>
<polygon fill="#6b7280" stroke="#6b7280" points="125.37,-157.93 132.37,-160.4 128.44,-154.11 125.37,-157.93"/>
<text xml:space="preserve" text-anchor="middle" x="114.65" y="-149.25" font-family="Helvetica,sans-Serif" font-size="11.00" fill="#6b7280">ε</text>
</g>
<!-- q2 -->
<g id="node5" class="node">
<title>q2</title>
<ellipse fill="none" stroke="black" cx="146.85" cy="-121.2" rx="16.2" ry="16.2"/>
<text xml:space="preserve" text-anchor="middle" x="146.85" y="-116.75" font-family="Helvetica,sans-Serif" font-size="11.00">q2</text>
</g>
<!-- q0&#45;&gt;q2 -->
<g id="edge3" class="edge">
<title>q0&#45;&gt;q2</title>
<path fill="none" stroke="#6b7280" stroke-dasharray="5,2" d="M98.87,-121.2C105.87,-121.2 114.31,-121.2 122.08,-121.2"/>
<polygon fill="#6b7280" stroke="#6b7280" points="121.66,-123.65 128.66,-121.2 121.66,-118.75 121.66,-123.65"/>
<text xml:space="preserve" text-anchor="middle" x="114.65" y="-122.75" font-family="Helvetica,sans-Serif" font-size="11.00" fill="#6b7280">ε</text>
</g>
<!-- q3 -->
<g id="node6" class="node">
<title>q3</title>
<ellipse fill="none" stroke="black" cx="146.85" cy="-71.2" rx="16.2" ry="16.2"/>
<text xml:space="preserve" text-anchor="middle" x="146.85" y="-66.75" font-family="Helvetica,sans-Serif" font-size="11.00">q3</text>
</g>
<!-- q0&#45;&gt;q3 -->
<g id="edge4" class="edge">
<title>q0&#45;&gt;q3</title>
<path fill="none" stroke="#6b7280" stroke-dasharray="5,2" d="M95.78,-111.32C104.67,-104.2 116.83,-94.45 126.94,-86.35"/>
<polygon fill="#6b7280" stroke="#6b7280" points="128.44,-88.29 132.37,-82 125.37,-84.47 128.44,-88.29"/>
<text xml:space="preserve" text-anchor="middle" x="114.65" y="-99.25" font-family="Helvetica,sans-Serif" font-size="11.00" fill="#6b7280">ε</text>
</g>
<!-- q49 -->
<g id="node3" class="node">
<title>q49</title>
<ellipse fill="none" stroke="black" cx="1353.65" cy="-151.2" rx="16.2" ry="16.2"/>
<ellipse fill="none" stroke="black" cx="1353.65" cy="-151.2" rx="20.2" ry="20.2"/>
<text xml:space="preserve" text-anchor="middle" x="1353.65" y="-146.75" font-family="Helvetica,sans-Serif" font-size="11.00">q49</text>
</g>
<!-- q4 -->
<g id="node7" class="node">
<title>q4</title>
<ellipse fill="none" stroke="black" cx="211.25" cy="-221.2" rx="16.2" ry="16.2"/>
<text xml:space="preserve" text-anchor="middle" x="211.25" y="-216.75" font-family="Helvetica,sans-Serif" font-size="11.00">q4</text>
</g>
<!-- q1&#45;&gt;q4 -->
<g id="edge5" class="edge">
<title>q1&#45;&gt;q4</title>
<path fill="none" stroke="#6b7280" stroke-dasharray="5,2" d="M160.18,-181.08C169.07,-188.2 181.23,-197.95 191.34,-206.05"/>
<polygon fill="#6b7280" stroke="#6b7280" points="189.77,-207.93 196.77,-210.4 192.84,-204.11 189.77,-207.93"/>
<text xml:space="preserve" text-anchor="middle" x="179.05" y="-199.25" font-family="Helvetica,sans-Serif" font-size="11.00" fill="#6b7280">ε</text>
</g>
<!-- q5 -->
<g id="node8" class="node">
<title>q5</title>
<ellipse fill="none" stroke="black" cx="211.25" cy="-171.2" rx="16.2" ry="16.2"/>
<text xml:space="preserve" text-anchor="middle" x="211.25" y="-166.75" font-family="Helvetica,sans-Serif" font-size="11.00">q5</text>
</g>
<!-- q1&#45;&gt;q5 -->
<g id="edge6" class="edge">
<title>q1&#45;&gt;q5</title>
<path fill="none" stroke="#6b7280" stroke-dasharray="5,2" d="M163.27,-171.2C170.27,-171.2 178.71,-171.2 186.48,-171.2"/>
<polygon fill="#6b7280" stroke="#6b7280" points="186.06,-173.65 193.06,-171.2 186.06,-168.75 186.06,-173.65"/>
<text xml:space="preserve" text-anchor="middle" x="179.05" y="-172.75" font-family="Helvetica,sans-Serif" font-size="11.00" fill="#6b7280">ε</text>
</g>
<!-- q6 -->
<g id="node9" class="node">
<title>q6</title>
<ellipse fill="none" stroke="black" cx="211.25" cy="-121.2" rx="16.2" ry="16.2"/>
<text xml:space="preserve" text-anchor="middle" x="211.25" y="-116.75" font-family="Helvetica,sans-Serif" font-size="11.00">q6</text>
</g>
<!-- q2&#45;&gt;q6 -->
<g id="edge7" class="edge">
<title>q2&#45;&gt;q6</title>
<path fill="none" stroke="#0f4c81" d="M163.27,-121.2C170.27,-121.2 178.71,-121.2 186.48,-121.2"/>
<polygon fill="#0f4c81" stroke="#0f4c81" points="186.06,-123.65 193.06,-121.2 186.06,-118.75 186.06,-123.65"/>
<text xml:space="preserve" text-anchor="middle" x="179.05" y="-122.75" font-family="Helvetica,sans-Serif" font-size="11.00" fill="#0f4c81">3</text>
</g>
<!-- q7 -->
<g id="node10" class="node">
<title>q7</title>
<ellipse fill="none" stroke="black" cx="211.25" cy="-68.2" rx="16.2" ry="16.2"/>
<text xml:space="preserve" text-anchor="middle" x="211.25" y="-63.75" font-family="Helvetica,sans-Serif" font-size="11.00">q7</text>
</g>
<!-- q3&#45;&gt;q7 -->
<g id="edge8" class="edge">
<title>q3&#45;&gt;q7</title>
<path fill="none" stroke="#0f4c81" d="M163.27,-70.46C170.27,-70.12 178.71,-69.72 186.48,-69.34"/>
<polygon fill="#0f4c81" stroke="#0f4c81" points="186.18,-71.81 193.06,-69.03 185.95,-66.92 186.18,-71.81"/>
<text xml:space="preserve" text-anchor="middle" x="179.05" y="-71.34" font-family="Helvetica,sans-Serif" font-size="11.00" fill="#0f4c81">3</text>
</g>
<!-- q8 -->
<g id="node11" class="node">
<title>q8</title>
<ellipse fill="none" stroke="black" cx="287.65" cy="-221.2" rx="16.2" ry="16.2"/>
<text xml:space="preserve" text-anchor="middle" x="287.65" y="-216.75" font-family="Helvetica,sans-Serif" font-size="11.00">q8</text>
</g>
<!-- q4&#45;&gt;q8 -->
<g id="edge9" class="edge">
<title>q4&#45;&gt;q8</title>
<path fill="none" stroke="#0f4c81" d="M227.67,-221.2C237.77,-221.2 251.19,-221.2 262.68,-221.2"/>
<polygon fill="#0f4c81" stroke="#0f4c81" points="262.48,-223.65 269.48,-221.2 262.48,-218.75 262.48,-223.65"/>
<text xml:space="preserve" text-anchor="middle" x="249.45" y="-222.75" font-family="Helvetica,sans-Serif" font-size="11.00" fill="#0f4c81">0</text>
</g>
<!-- q9 -->
<g id="node12" class="node">
<title>q9</title>
<ellipse fill="none" stroke="black" cx="287.65" cy="-171.2" rx="16.2" ry="16.2"/>
<text xml:space="preserve" text-anchor="middle" x="287.65" y="-166.75" font-family="Helvetica,sans-Serif" font-size="11.00">q9</text>
</g>
<!-- q5&#45;&gt;q9 -->
<g id="edge10" class="edge">
<title>q5&#45;&gt;q9</title>
<path fill="none" stroke="#0f4c81" d="M227.67,-171.2C237.77,-171.2 251.19,-171.2 262.68,-171.2"/>
<polygon fill="#0f4c81" stroke="#0f4c81" points="262.48,-173.65 269.48,-171.2 262.48,-168.75 262.48,-173.65"/>
<text xml:space="preserve" text-anchor="middle" x="249.45" y="-172.75" font-family="Helvetica,sans-Serif" font-size="11.00" fill="#0f4c81">[12]</text>
</g>
<!-- q10 -->
<g id="node13" class="node">
<title>q10</title>
<ellipse fill="none" stroke="black" cx="287.65" cy="-121.2" rx="16.2" ry="16.2"/>
<text xml:space="preserve" text-anchor="middle" x="287.65" y="-116.75" font-family="Helvetica,sans-Serif" font-size="11.00">q10</text>
</g>
<!-- q6&#45;&gt;q10 -->
<g id="edge11" class="edge">
<title>q6&#45;&gt;q10</title>
<path fill="none" stroke="#0f4c81" d="M227.67,-121.2C237.77,-121.2 251.19,-121.2 262.68,-121.2"/>
<polygon fill="#0f4c81" stroke="#0f4c81" points="262.48,-123.65 269.48,-121.2 262.48,-118.75 262.48,-123.65"/>
<text xml:space="preserve" text-anchor="middle" x="249.45" y="-122.75" font-family="Helvetica,sans-Serif" font-size="11.00" fill="#0f4c81">0</text>
</g>
<!-- q11 -->
<g id="node14" class="node">
<title>q11</title>
<ellipse fill="none" stroke="black" cx="287.65" cy="-66.2" rx="16.2" ry="16.2"/>
<text xml:space="preserve" text-anchor="middle" x="287.65" y="-61.75" font-family="Helvetica,sans-Serif" font-size="11.00">q11</text>
</g>
<!-- q7&#45;&gt;q11 -->
<g id="edge12" class="edge">
<title>q7&#45;&gt;q11</title>
<path fill="none" stroke="#0f4c81" d="M227.67,-67.79C237.77,-67.51 251.19,-67.15 262.68,-66.84"/>
<polygon fill="#0f4c81" stroke="#0f4c81" points="262.55,-69.3 269.49,-66.66 262.42,-64.4 262.55,-69.3"/>
<text xml:space="preserve" text-anchor="middle" x="249.45" y="-68.99" font-family="Helvetica,sans-Serif" font-size="11.00" fill="#0f4c81">1</text>
</g>
<!-- q12 -->
<g id="node15" class="node">
<title>q12</title>
<ellipse fill="none" stroke="black" cx="367.8" cy="-221.2" rx="16.2" ry="16.2"/>
<text xml:space="preserve" text-anchor="middle" x="367.8" y="-216.75" font-family="Helvetica,sans-Serif" font-size="11.00">q12</text>
</g>
<!-- q8&#45;&gt;q12 -->
<g id="edge13" class="edge">
<title>q8&#45;&gt;q12</title>
<path fill="none" stroke="#0f4c81" d="M304.09,-221.2C315.15,-221.2 330.26,-221.2 342.87,-221.2"/>
<polygon fill="#0f4c81" stroke="#0f4c81" points="342.61,-223.65 349.61,-221.2 342.61,-218.75 342.61,-223.65"/>
<text xml:space="preserve" text-anchor="middle" x="327.73" y="-222.75" font-family="Helvetica,sans-Serif" font-size="11.00" fill="#0f4c81">[1&#45;9]</text>
</g>
<!-- q13 -->
<g id="node16" class="node">
<title>q13</title>
<ellipse fill="none" stroke="black" cx="367.8" cy="-171.2" rx="16.2" ry="16.2"/>
<text xml:space="preserve" text-anchor="middle" x="367.8" y="-166.75" font-family="Helvetica,sans-Serif" font-size="11.00">q13</text>
</g>
<!-- q9&#45;&gt;q13 -->
<g id="edge14" class="edge">
<title>q9&#45;&gt;q13</title>
<path fill="none" stroke="#0f4c81" d="M304.09,-171.2C315.15,-171.2 330.26,-171.2 342.87,-171.2"/>
<polygon fill="#0f4c81" stroke="#0f4c81" points="342.61,-173.65 349.61,-171.2 342.61,-168.75 342.61,-173.65"/>
<text xml:space="preserve" text-anchor="middle" x="327.73" y="-172.75" font-family="Helvetica,sans-Serif" font-size="11.00" fill="#0f4c81">[0&#45;9]</text>
</g>
<!-- q14 -->
<g id="node17" class="node">
<title>q14</title>
<ellipse fill="none" stroke="black" cx="367.8" cy="-121.2" rx="16.2" ry="16.2"/>
<text xml:space="preserve" text-anchor="middle" x="367.8" y="-116.75" font-family="Helvetica,sans-Serif" font-size="11.00">q14</text>
</g>
<!-- q10&#45;&gt;q14 -->
<g id="edge15" class="edge">
<title>q10&#45;&gt;q14</title>
<path fill="none" stroke="#0f4c81" d="M304.09,-121.2C315.15,-121.2 330.26,-121.2 342.87,-121.2"/>
<polygon fill="#0f4c81" stroke="#0f4c81" points="342.61,-123.65 349.61,-121.2 342.61,-118.75 342.61,-123.65"/>
<text xml:space="preserve" text-anchor="middle" x="327.73" y="-122.75" font-family="Helvetica,sans-Serif" font-size="11.00" fill="#0f4c81">&#39;/&#39;</text>
</g>
<!-- q15 -->
<g id="node18" class="node">
<title>q15</title>
<ellipse fill="none" stroke="black" cx="367.8" cy="-66.2" rx="16.2" ry="16.2"/>
<text xml:space="preserve" text-anchor="middle" x="367.8" y="-61.75" font-family="Helvetica,sans-Serif" font-size="11.00">q15</text>
</g>
<!-- q11&#45;&gt;q15 -->
<g id="edge16" class="edge">
<title>q11&#45;&gt;q15</title>
<path fill="none" stroke="#0f4c81" d="M304.09,-66.2C315.15,-66.2 330.26,-66.2 342.87,-66.2"/>
<polygon fill="#0f4c81" stroke="#0f4c81" points="342.61,-68.65 349.61,-66.2 342.61,-63.75 342.61,-68.65"/>
<text xml:space="preserve" text-anchor="middle" x="327.73" y="-67.75" font-family="Helvetica,sans-Serif" font-size="11.00" fill="#0f4c81">&#39;/&#39;</text>
</g>
<!-- q16 -->
<g id="node19" class="node">
<title>q16</title>
<ellipse fill="none" stroke="black" cx="432.2" cy="-218.2" rx="16.2" ry="16.2"/>
<text xml:space="preserve" text-anchor="middle" x="432.2" y="-213.75" font-family="Helvetica,sans-Serif" font-size="11.00">q16</text>
</g>
<!-- q12&#45;&gt;q16 -->
<g id="edge17" class="edge">
<title>q12&#45;&gt;q16</title>
<path fill="none" stroke="#6b7280" stroke-dasharray="5,2" d="M384.22,-220.46C391.22,-220.12 399.66,-219.72 407.43,-219.34"/>
<polygon fill="#6b7280" stroke="#6b7280" points="407.13,-221.81 414.01,-219.03 406.9,-216.92 407.13,-221.81"/>
<text xml:space="preserve" text-anchor="middle" x="400" y="-221.34" font-family="Helvetica,sans-Serif" font-size="11.00" fill="#6b7280">ε</text>
</g>
<!-- q13&#45;&gt;q16 -->
<g id="edge18" class="edge">
<title>q13&#45;&gt;q16</title>
<path fill="none" stroke="#6b7280" stroke-dasharray="5,2" d="M381.43,-180.71C390.22,-187.34 402.12,-196.29 412.07,-203.79"/>
<polygon fill="#6b7280" stroke="#6b7280" points="410.32,-205.54 417.38,-207.79 413.26,-201.62 410.32,-205.54"/>
<text xml:space="preserve" text-anchor="middle" x="400" y="-197.66" font-family="Helvetica,sans-Serif" font-size="11.00" fill="#6b7280">ε</text>
</g>
<!-- q17 -->
<g id="node20" class="node">
<title>q17</title>
<ellipse fill="none" stroke="black" cx="432.2" cy="-166.2" rx="16.2" ry="16.2"/>
<text xml:space="preserve" text-anchor="middle" x="432.2" y="-161.75" font-family="Helvetica,sans-Serif" font-size="11.00">q17</text>
</g>
<!-- q14&#45;&gt;q17 -->
<g id="edge19" class="edge">
<title>q14&#45;&gt;q17</title>
<path fill="none" stroke="#6b7280" stroke-dasharray="5,2" d="M381.43,-130.31C390.14,-136.59 401.89,-145.06 411.78,-152.2"/>
<polygon fill="#6b7280" stroke="#6b7280" points="410.25,-154.11 417.36,-156.22 413.12,-150.14 410.25,-154.11"/>
<text xml:space="preserve" text-anchor="middle" x="400" y="-146.6" font-family="Helvetica,sans-Serif" font-size="11.00" fill="#6b7280">ε</text>
</g>
<!-- q18 -->
<g id="node21" class="node">
<title>q18</title>
<ellipse fill="none" stroke="black" cx="432.2" cy="-116.2" rx="16.2" ry="16.2"/>
<text xml:space="preserve" text-anchor="middle" x="432.2" y="-111.75" font-family="Helvetica,sans-Serif" font-size="11.00">q18</text>
</g>
<!-- q14&#45;&gt;q18 -->
<g id="edge20" class="edge">
<title>q14&#45;&gt;q18</title>
<path fill="none" stroke="#6b7280" stroke-dasharray="5,2" d="M384.28,-118.69C388.4,-118.1 392.86,-117.55 397,-117.2 400.3,-116.92 403.79,-116.71 407.22,-116.56"/>
<polygon fill="#6b7280" stroke="#6b7280" points="407.09,-119.02 414,-116.34 406.93,-114.12 407.09,-119.02"/>
<text xml:space="preserve" text-anchor="middle" x="400" y="-118.75" font-family="Helvetica,sans-Serif" font-size="11.00" fill="#6b7280">ε</text>
</g>
<!-- q19 -->
<g id="node22" class="node">
<title>q19</title>
<ellipse fill="none" stroke="black" cx="432.2" cy="-66.2" rx="16.2" ry="16.2"/>
<text xml:space="preserve" text-anchor="middle" x="432.2" y="-61.75" font-family="Helvetica,sans-Serif" font-size="11.00">q19</text>
</g>
<!-- q15&#45;&gt;q19 -->
<g id="edge21" class="edge">
<title>q15&#45;&gt;q19</title>
<path fill="none" stroke="#6b7280" stroke-dasharray="5,2" d="M384.22,-66.2C391.22,-66.2 399.66,-66.2 407.43,-66.2"/>
<polygon fill="#6b7280" stroke="#6b7280" points="407.01,-68.65 414.01,-66.2 407.01,-63.75 407.01,-68.65"/>
<text xml:space="preserve" text-anchor="middle" x="400" y="-67.75" font-family="Helvetica,sans-Serif" font-size="11.00" fill="#6b7280">ε</text>
</g>
<!-- q20 -->
<g id="node23" class="node">
<title>q20</title>
<ellipse fill="none" stroke="black" cx="432.2" cy="-16.2" rx="16.2" ry="16.2"/>
<text xml:space="preserve" text-anchor="middle" x="432.2" y="-11.75" font-family="Helvetica,sans-Serif" font-size="11.00">q20</text>
</g>
<!-- q15&#45;&gt;q20 -->
<g id="edge22" class="edge">
<title>q15&#45;&gt;q20</title>
<path fill="none" stroke="#6b7280" stroke-dasharray="5,2" d="M381.13,-56.32C390.02,-49.2 402.18,-39.45 412.29,-31.35"/>
<polygon fill="#6b7280" stroke="#6b7280" points="413.79,-33.29 417.72,-27 410.72,-29.47 413.79,-33.29"/>
<text xml:space="preserve" text-anchor="middle" x="400" y="-44.25" font-family="Helvetica,sans-Serif" font-size="11.00" fill="#6b7280">ε</text>
</g>
<!-- q21 -->
<g id="node24" class="node">
<title>q21</title>
<ellipse fill="none" stroke="black" cx="498.1" cy="-218.2" rx="16.2" ry="16.2"/>
<text xml:space="preserve" text-anchor="middle" x="498.1" y="-213.75" font-family="Helvetica,sans-Serif" font-size="11.00">q21</text>
</g>
<!-- q16&#45;&gt;q21 -->
<g id="edge23" class="edge">
<title>q16&#45;&gt;q21</title>
<path fill="none" stroke="#0f4c81" d="M448.67,-218.2C456.05,-218.2 465.04,-218.2 473.26,-218.2"/>
<polygon fill="#0f4c81" stroke="#0f4c81" points="473.26,-220.65 480.26,-218.2 473.26,-215.75 473.26,-220.65"/>
<text xml:space="preserve" text-anchor="middle" x="465.15" y="-219.75" font-family="Helvetica,sans-Serif" font-size="11.00" fill="#0f4c81">&#39;/&#39;</text>
</g>
<!-- q22 -->
<g id="node25" class="node">
<title>q22</title>
<ellipse fill="none" stroke="black" cx="498.1" cy="-166.2" rx="16.2" ry="16.2"/>
<text xml:space="preserve" text-anchor="middle" x="498.1" y="-161.75" font-family="Helvetica,sans-Serif" font-size="11.00">q22</text>
</g>
<!-- q17&#45;&gt;q22 -->
<g id="edge24" class="edge">
<title>q17&#45;&gt;q22</title>
<path fill="none" stroke="#0f4c81" d="M448.67,-166.2C456.05,-166.2 465.04,-166.2 473.26,-166.2"/>
<polygon fill="#0f4c81" stroke="#0f4c81" points="473.26,-168.65 480.26,-166.2 473.26,-163.75 473.26,-168.65"/>
<text xml:space="preserve" text-anchor="middle" x="465.15" y="-167.75" font-family="Helvetica,sans-Serif" font-size="11.00" fill="#0f4c81">0</text>
</g>
<!-- q23 -->
<g id="node26" class="node">
<title>q23</title>
<ellipse fill="none" stroke="black" cx="498.1" cy="-116.2" rx="16.2" ry="16.2"/>
<text xml:space="preserve" text-anchor="middle" x="498.1" y="-111.75" font-family="Helvetica,sans-Serif" font-size="11.00">q23</text>
</g>
<!-- q18&#45;&gt;q23 -->
<g id="edge25" class="edge">
<title>q18&#45;&gt;q23</title>
<path fill="none" stroke="#0f4c81" d="M448.67,-116.2C456.05,-116.2 465.04,-116.2 473.26,-116.2"/>
<polygon fill="#0f4c81" stroke="#0f4c81" points="473.26,-118.65 480.26,-116.2 473.26,-113.75 473.26,-118.65"/>
<text xml:space="preserve" text-anchor="middle" x="465.15" y="-117.75" font-family="Helvetica,sans-Serif" font-size="11.00" fill="#0f4c81">1</text>
</g>
<!-- q24 -->
<g id="node27" class="node">
<title>q24</title>
<ellipse fill="none" stroke="black" cx="498.1" cy="-66.2" rx="16.2" ry="16.2"/>
<text xml:space="preserve" text-anchor="middle" x="498.1" y="-61.75" font-family="Helvetica,sans-Serif" font-size="11.00">q24</text>
</g>
<!-- q19&#45;&gt;q24 -->
<g id="edge26" class="edge">
<title>q19&#45;&gt;q24</title>
<path fill="none" stroke="#0f4c81" d="M448.67,-66.2C456.05,-66.2 465.04,-66.2 473.26,-66.2"/>
<polygon fill="#0f4c81" stroke="#0f4c81" points="473.26,-68.65 480.26,-66.2 473.26,-63.75 473.26,-68.65"/>
<text xml:space="preserve" text-anchor="middle" x="465.15" y="-67.75" font-family="Helvetica,sans-Serif" font-size="11.00" fill="#0f4c81">0</text>
</g>
<!-- q25 -->
<g id="node28" class="node">
<title>q25</title>
<ellipse fill="none" stroke="black" cx="498.1" cy="-16.2" rx="16.2" ry="16.2"/>
<text xml:space="preserve" text-anchor="middle" x="498.1" y="-11.75" font-family="Helvetica,sans-Serif" font-size="11.00">q25</text>
</g>
<!-- q20&#45;&gt;q25 -->
<g id="edge27" class="edge">
<title>q20&#45;&gt;q25</title>
<path fill="none" stroke="#0f4c81" d="M448.67,-16.2C456.05,-16.2 465.04,-16.2 473.26,-16.2"/>
<polygon fill="#0f4c81" stroke="#0f4c81" points="473.26,-18.65 480.26,-16.2 473.26,-13.75 473.26,-18.65"/>
<text xml:space="preserve" text-anchor="middle" x="465.15" y="-17.75" font-family="Helvetica,sans-Serif" font-size="11.00" fill="#0f4c81">1</text>
</g>
<!-- q26 -->
<g id="node29" class="node">
<title>q26</title>
<ellipse fill="none" stroke="black" cx="592.5" cy="-266.2" rx="16.2" ry="16.2"/>
<text xml:space="preserve" text-anchor="middle" x="592.5" y="-261.75" font-family="Helvetica,sans-Serif" font-size="11.00">q26</text>
</g>
<!-- q21&#45;&gt;q26 -->
<g id="edge28" class="edge">
<title>q21&#45;&gt;q26</title>
<path fill="none" stroke="#6b7280" stroke-dasharray="5,2" d="M512.85,-225.56C517.44,-228.01 522.58,-230.73 527.3,-233.2 541.55,-240.65 557.65,-248.93 570.17,-255.33"/>
<polygon fill="#6b7280" stroke="#6b7280" points="568.75,-257.36 576.1,-258.36 570.98,-252.99 568.75,-257.36"/>
<text xml:space="preserve" text-anchor="middle" x="545.3" y="-252.79" font-family="Helvetica,sans-Serif" font-size="11.00" fill="#6b7280">ε</text>
</g>
<!-- q27 -->
<g id="node30" class="node">
<title>q27</title>
<ellipse fill="none" stroke="black" cx="592.5" cy="-216.2" rx="16.2" ry="16.2"/>
<text xml:space="preserve" text-anchor="middle" x="592.5" y="-211.75" font-family="Helvetica,sans-Serif" font-size="11.00">q27</text>
</g>
<!-- q21&#45;&gt;q27 -->
<g id="edge29" class="edge">
<title>q21&#45;&gt;q27</title>
<path fill="none" stroke="#6b7280" stroke-dasharray="5,2" d="M514.77,-217.86C529.33,-217.55 551.21,-217.07 567.88,-216.71"/>
<polygon fill="#6b7280" stroke="#6b7280" points="567.6,-219.17 574.54,-216.57 567.49,-214.27 567.6,-219.17"/>
<text xml:space="preserve" text-anchor="middle" x="545.3" y="-219.1" font-family="Helvetica,sans-Serif" font-size="11.00" fill="#6b7280">ε</text>
</g>
<!-- q28 -->
<g id="node31" class="node">
<title>q28</title>
<ellipse fill="none" stroke="black" cx="592.5" cy="-166.2" rx="16.2" ry="16.2"/>
<text xml:space="preserve" text-anchor="middle" x="592.5" y="-161.75" font-family="Helvetica,sans-Serif" font-size="11.00">q28</text>
</g>
<!-- q22&#45;&gt;q28 -->
<g id="edge30" class="edge">
<title>q22&#45;&gt;q28</title>
<path fill="none" stroke="#0f4c81" d="M514.77,-166.2C529.33,-166.2 551.21,-166.2 567.88,-166.2"/>
<polygon fill="#0f4c81" stroke="#0f4c81" points="567.54,-168.65 574.54,-166.2 567.54,-163.75 567.54,-168.65"/>
<text xml:space="preserve" text-anchor="middle" x="545.3" y="-167.75" font-family="Helvetica,sans-Serif" font-size="11.00" fill="#0f4c81">[13&#45;9]</text>
</g>
<!-- q29 -->
<g id="node32" class="node">
<title>q29</title>
<ellipse fill="none" stroke="black" cx="592.5" cy="-116.2" rx="16.2" ry="16.2"/>
<text xml:space="preserve" text-anchor="middle" x="592.5" y="-111.75" font-family="Helvetica,sans-Serif" font-size="11.00">q29</text>
</g>
<!-- q23&#45;&gt;q29 -->
<g id="edge31" class="edge">
<title>q23&#45;&gt;q29</title>
<path fill="none" stroke="#0f4c81" d="M514.77,-116.2C529.33,-116.2 551.21,-116.2 567.88,-116.2"/>
<polygon fill="#0f4c81" stroke="#0f4c81" points="567.54,-118.65 574.54,-116.2 567.54,-113.75 567.54,-118.65"/>
<text xml:space="preserve" text-anchor="middle" x="545.3" y="-117.75" font-family="Helvetica,sans-Serif" font-size="11.00" fill="#0f4c81">[0&#45;2]</text>
</g>
<!-- q30 -->
<g id="node33" class="node">
<title>q30</title>
<ellipse fill="none" stroke="black" cx="592.5" cy="-66.2" rx="16.2" ry="16.2"/>
<text xml:space="preserve" text-anchor="middle" x="592.5" y="-61.75" font-family="Helvetica,sans-Serif" font-size="11.00">q30</text>
</g>
<!-- q24&#45;&gt;q30 -->
<g id="edge32" class="edge">
<title>q24&#45;&gt;q30</title>
<path fill="none" stroke="#0f4c81" d="M514.77,-66.2C529.33,-66.2 551.21,-66.2 567.88,-66.2"/>
<polygon fill="#0f4c81" stroke="#0f4c81" points="567.54,-68.65 574.54,-66.2 567.54,-63.75 567.54,-68.65"/>
<text xml:space="preserve" text-anchor="middle" x="545.3" y="-67.75" font-family="Helvetica,sans-Serif" font-size="11.00" fill="#0f4c81">[13578]</text>
</g>
<!-- q31 -->
<g id="node34" class="node">
<title>q31</title>
<ellipse fill="none" stroke="black" cx="592.5" cy="-16.2" rx="16.2" ry="16.2"/>
<text xml:space="preserve" text-anchor="middle" x="592.5" y="-11.75" font-family="Helvetica,sans-Serif" font-size="11.00">q31</text>
</g>
<!-- q25&#45;&gt;q31 -->
<g id="edge33" class="edge">
<title>q25&#45;&gt;q31</title>
<path fill="none" stroke="#0f4c81" d="M514.77,-16.2C529.33,-16.2 551.21,-16.2 567.88,-16.2"/>
<polygon fill="#0f4c81" stroke="#0f4c81" points="567.54,-18.65 574.54,-16.2 567.54,-13.75 567.54,-18.65"/>
<text xml:space="preserve" text-anchor="middle" x="545.3" y="-17.75" font-family="Helvetica,sans-Serif" font-size="11.00" fill="#0f4c81">[02]</text>
</g>
<!-- q32 -->
<g id="node35" class="node">
<title>q32</title>
<ellipse fill="none" stroke="black" cx="656.9" cy="-266.2" rx="16.2" ry="16.2"/>
<text xml:space="preserve" text-anchor="middle" x="656.9" y="-261.75" font-family="Helvetica,sans-Serif" font-size="11.00">q32</text>
</g>
<!-- q26&#45;&gt;q32 -->
<g id="edge34" class="edge">
<title>q26&#45;&gt;q32</title>
<path fill="none" stroke="#0f4c81" d="M608.92,-266.2C615.92,-266.2 624.36,-266.2 632.13,-266.2"/>
<polygon fill="#0f4c81" stroke="#0f4c81" points="631.71,-268.65 638.71,-266.2 631.71,-263.75 631.71,-268.65"/>
<text xml:space="preserve" text-anchor="middle" x="624.7" y="-267.75" font-family="Helvetica,sans-Serif" font-size="11.00" fill="#0f4c81">0</text>
</g>
<!-- q33 -->
<g id="node36" class="node">
<title>q33</title>
<ellipse fill="none" stroke="black" cx="656.9" cy="-216.2" rx="16.2" ry="16.2"/>
<text xml:space="preserve" text-anchor="middle" x="656.9" y="-211.75" font-family="Helvetica,sans-Serif" font-size="11.00">q33</text>
</g>
<!-- q27&#45;&gt;q33 -->
<g id="edge35" class="edge">
<title>q27&#45;&gt;q33</title>
<path fill="none" stroke="#0f4c81" d="M608.92,-216.2C615.92,-216.2 624.36,-216.2 632.13,-216.2"/>
<polygon fill="#0f4c81" stroke="#0f4c81" points="631.71,-218.65 638.71,-216.2 631.71,-213.75 631.71,-218.65"/>
<text xml:space="preserve" text-anchor="middle" x="624.7" y="-217.75" font-family="Helvetica,sans-Serif" font-size="11.00" fill="#0f4c81">1</text>
</g>
<!-- q34 -->
<g id="node37" class="node">
<title>q34</title>
<ellipse fill="none" stroke="black" cx="656.9" cy="-151.2" rx="16.2" ry="16.2"/>
<text xml:space="preserve" text-anchor="middle" x="656.9" y="-146.75" font-family="Helvetica,sans-Serif" font-size="11.00">q34</text>
</g>
<!-- q28&#45;&gt;q34 -->
<g id="edge36" class="edge">
<title>q28&#45;&gt;q34</title>
<path fill="none" stroke="#6b7280" stroke-dasharray="5,2" d="M608.61,-162.57C615.89,-160.82 624.78,-158.68 632.88,-156.73"/>
<polygon fill="#6b7280" stroke="#6b7280" points="633.23,-159.17 639.46,-155.15 632.08,-154.41 633.23,-159.17"/>
<text xml:space="preserve" text-anchor="middle" x="624.7" y="-160.7" font-family="Helvetica,sans-Serif" font-size="11.00" fill="#6b7280">ε</text>
</g>
<!-- q29&#45;&gt;q34 -->
<g id="edge37" class="edge">
<title>q29&#45;&gt;q34</title>
<path fill="none" stroke="#6b7280" stroke-dasharray="5,2" d="M607.04,-123.79C615.22,-128.38 625.81,-134.32 635.04,-139.5"/>
<polygon fill="#6b7280" stroke="#6b7280" points="633.76,-141.59 641.07,-142.88 636.16,-137.32 633.76,-141.59"/>
<text xml:space="preserve" text-anchor="middle" x="624.7" y="-136.3" font-family="Helvetica,sans-Serif" font-size="11.00" fill="#6b7280">ε</text>
</g>
<!-- q35 -->
<g id="node38" class="node">
<title>q35</title>
<ellipse fill="none" stroke="black" cx="656.9" cy="-66.2" rx="16.2" ry="16.2"/>
<text xml:space="preserve" text-anchor="middle" x="656.9" y="-61.75" font-family="Helvetica,sans-Serif" font-size="11.00">q35</text>
</g>
<!-- q30&#45;&gt;q35 -->
<g id="edge38" class="edge">
<title>q30&#45;&gt;q35</title>
<path fill="none" stroke="#6b7280" stroke-dasharray="5,2" d="M608.92,-66.2C615.92,-66.2 624.36,-66.2 632.13,-66.2"/>
<polygon fill="#6b7280" stroke="#6b7280" points="631.71,-68.65 638.71,-66.2 631.71,-63.75 631.71,-68.65"/>
<text xml:space="preserve" text-anchor="middle" x="624.7" y="-67.75" font-family="Helvetica,sans-Serif" font-size="11.00" fill="#6b7280">ε</text>
</g>
<!-- q31&#45;&gt;q35 -->
<g id="edge39" class="edge">
<title>q31&#45;&gt;q35</title>
<path fill="none" stroke="#6b7280" stroke-dasharray="5,2" d="M605.83,-26.08C614.72,-33.2 626.88,-42.95 636.99,-51.05"/>
<polygon fill="#6b7280" stroke="#6b7280" points="635.42,-52.93 642.42,-55.4 638.49,-49.11 635.42,-52.93"/>
<text xml:space="preserve" text-anchor="middle" x="624.7" y="-44.25" font-family="Helvetica,sans-Serif" font-size="11.00" fill="#6b7280">ε</text>
</g>
<!-- q36 -->
<g id="node39" class="node">
<title>q36</title>
<ellipse fill="none" stroke="black" cx="737.05" cy="-266.2" rx="16.2" ry="16.2"/>
<text xml:space="preserve" text-anchor="middle" x="737.05" y="-261.75" font-family="Helvetica,sans-Serif" font-size="11.00">q36</text>
</g>
<!-- q32&#45;&gt;q36 -->
<g id="edge40" class="edge">
<title>q32&#45;&gt;q36</title>
<path fill="none" stroke="#0f4c81" d="M673.34,-266.2C684.4,-266.2 699.51,-266.2 712.12,-266.2"/>
<polygon fill="#0f4c81" stroke="#0f4c81" points="711.86,-268.65 718.86,-266.2 711.86,-263.75 711.86,-268.65"/>
<text xml:space="preserve" text-anchor="middle" x="696.98" y="-267.75" font-family="Helvetica,sans-Serif" font-size="11.00" fill="#0f4c81">[1&#45;9]</text>
</g>
<!-- q37 -->
<g id="node40" class="node">
<title>q37</title>
<ellipse fill="none" stroke="black" cx="737.05" cy="-216.2" rx="16.2" ry="16.2"/>
<text xml:space="preserve" text-anchor="middle" x="737.05" y="-211.75" font-family="Helvetica,sans-Serif" font-size="11.00">q37</text>
</g>
<!-- q33&#45;&gt;q37 -->
<g id="edge41" class="edge">
<title>q33&#45;&gt;q37</title>
<path fill="none" stroke="#0f4c81" d="M673.34,-216.2C684.4,-216.2 699.51,-216.2 712.12,-216.2"/>
<polygon fill="#0f4c81" stroke="#0f4c81" points="711.86,-218.65 718.86,-216.2 711.86,-213.75 711.86,-218.65"/>
<text xml:space="preserve" text-anchor="middle" x="696.98" y="-217.75" font-family="Helvetica,sans-Serif" font-size="11.00" fill="#0f4c81">[0&#45;2]</text>
</g>
<!-- q38 -->
<g id="node41" class="node">
<title>q38</title>
<ellipse fill="none" stroke="black" cx="865.85" cy="-151.2" rx="16.2" ry="16.2"/>
<text xml:space="preserve" text-anchor="middle" x="865.85" y="-146.75" font-family="Helvetica,sans-Serif" font-size="11.00">q38</text>
</g>
<!-- q34&#45;&gt;q38 -->
<g id="edge42" class="edge">
<title>q34&#45;&gt;q38</title>
<path fill="none" stroke="#6b7280" stroke-dasharray="5,2" d="M673.45,-151.2C709.35,-151.2 798.16,-151.2 840.99,-151.2"/>
<polygon fill="#6b7280" stroke="#6b7280" points="840.88,-153.65 847.88,-151.2 840.88,-148.75 840.88,-153.65"/>
<text xml:space="preserve" text-anchor="middle" x="769.25" y="-152.75" font-family="Helvetica,sans-Serif" font-size="11.00" fill="#6b7280">ε</text>
</g>
<!-- q35&#45;&gt;q38 -->
<g id="edge43" class="edge">
<title>q35&#45;&gt;q38</title>
<path fill="none" stroke="#6b7280" stroke-dasharray="5,2" d="M672.45,-72.18C708.08,-86.81 799.85,-124.5 842.47,-142.01"/>
<polygon fill="#6b7280" stroke="#6b7280" points="841.51,-144.26 848.91,-144.65 843.37,-139.73 841.51,-144.26"/>
<text xml:space="preserve" text-anchor="middle" x="769.25" y="-114.17" font-family="Helvetica,sans-Serif" font-size="11.00" fill="#6b7280">ε</text>
</g>
<!-- q39 -->
<g id="node42" class="node">
<title>q39</title>
<ellipse fill="none" stroke="black" cx="801.45" cy="-216.2" rx="16.2" ry="16.2"/>
<text xml:space="preserve" text-anchor="middle" x="801.45" y="-211.75" font-family="Helvetica,sans-Serif" font-size="11.00">q39</text>
</g>
<!-- q36&#45;&gt;q39 -->
<g id="edge44" class="edge">
<title>q36&#45;&gt;q39</title>
<path fill="none" stroke="#6b7280" stroke-dasharray="5,2" d="M750.38,-256.32C759.27,-249.2 771.43,-239.45 781.54,-231.35"/>
<polygon fill="#6b7280" stroke="#6b7280" points="783.04,-233.29 786.97,-227 779.97,-229.47 783.04,-233.29"/>
<text xml:space="preserve" text-anchor="middle" x="769.25" y="-244.25" font-family="Helvetica,sans-Serif" font-size="11.00" fill="#6b7280">ε</text>
</g>
<!-- q37&#45;&gt;q39 -->
<g id="edge45" class="edge">
<title>q37&#45;&gt;q39</title>
<path fill="none" stroke="#6b7280" stroke-dasharray="5,2" d="M753.47,-216.2C760.47,-216.2 768.91,-216.2 776.68,-216.2"/>
<polygon fill="#6b7280" stroke="#6b7280" points="776.26,-218.65 783.26,-216.2 776.26,-213.75 776.26,-218.65"/>
<text xml:space="preserve" text-anchor="middle" x="769.25" y="-217.75" font-family="Helvetica,sans-Serif" font-size="11.00" fill="#6b7280">ε</text>
</g>
<!-- q40 -->
<g id="node43" class="node">
<title>q40</title>
<ellipse fill="none" stroke="black" cx="931.75" cy="-151.2" rx="16.2" ry="16.2"/>
<text xml:space="preserve" text-anchor="middle" x="931.75" y="-146.75" font-family="Helvetica,sans-Serif" font-size="11.00">q40</text>
</g>
<!-- q38&#45;&gt;q40 -->
<g id="edge46" class="edge">
<title>q38&#45;&gt;q40</title>
<path fill="none" stroke="#0f4c81" d="M882.32,-151.2C889.7,-151.2 898.69,-151.2 906.91,-151.2"/>
<polygon fill="#0f4c81" stroke="#0f4c81" points="906.91,-153.65 913.91,-151.2 906.91,-148.75 906.91,-153.65"/>
<text xml:space="preserve" text-anchor="middle" x="898.8" y="-152.75" font-family="Helvetica,sans-Serif" font-size="11.00" fill="#0f4c81">&#39;/&#39;</text>
</g>
<!-- q39&#45;&gt;q38 -->
<g id="edge47" class="edge">
<title>q39&#45;&gt;q38</title>
<path fill="none" stroke="#6b7280" stroke-dasharray="5,2" d="M813.32,-204.88C822.98,-194.81 837.26,-179.94 848.33,-168.41"/>
<polygon fill="#6b7280" stroke="#6b7280" points="849.98,-170.23 853.06,-163.48 846.44,-166.84 849.98,-170.23"/>
<text xml:space="preserve" text-anchor="middle" x="833.65" y="-187.2" font-family="Helvetica,sans-Serif" font-size="11.00" fill="#6b7280">ε</text>
</g>
<!-- q41 -->
<g id="node44" class="node">
<title>q41</title>
<ellipse fill="none" stroke="black" cx="996.15" cy="-177.2" rx="16.2" ry="16.2"/>
<text xml:space="preserve" text-anchor="middle" x="996.15" y="-172.75" font-family="Helvetica,sans-Serif" font-size="11.00">q41</text>
</g>
<!-- q40&#45;&gt;q41 -->
<g id="edge48" class="edge">
<title>q40&#45;&gt;q41</title>
<path fill="none" stroke="#6b7280" stroke-dasharray="5,2" d="M947.22,-157.23C954.86,-160.41 964.4,-164.39 972.95,-167.95"/>
<polygon fill="#6b7280" stroke="#6b7280" points="971.95,-170.19 979.36,-170.62 973.84,-165.67 971.95,-170.19"/>
<text xml:space="preserve" text-anchor="middle" x="963.95" y="-166.53" font-family="Helvetica,sans-Serif" font-size="11.00" fill="#6b7280">ε</text>
</g>
<!-- q42 -->
<g id="node45" class="node">
<title>q42</title>
<ellipse fill="none" stroke="black" cx="996.15" cy="-127.2" rx="16.2" ry="16.2"/>
<text xml:space="preserve" text-anchor="middle" x="996.15" y="-122.75" font-family="Helvetica,sans-Serif" font-size="11.00">q42</text>
</g>
<!-- q40&#45;&gt;q42 -->
<g id="edge49" class="edge">
<title>q40&#45;&gt;q42</title>
<path fill="none" stroke="#6b7280" stroke-dasharray="5,2" d="M947.02,-144.91C951.46,-143.02 956.39,-140.97 960.95,-139.2 964.71,-137.74 968.74,-136.26 972.65,-134.86"/>
<polygon fill="#6b7280" stroke="#6b7280" points="973.21,-137.26 979,-132.63 971.58,-132.64 973.21,-137.26"/>
<text xml:space="preserve" text-anchor="middle" x="963.95" y="-140.75" font-family="Helvetica,sans-Serif" font-size="11.00" fill="#6b7280">ε</text>
</g>
<!-- q43 -->
<g id="node46" class="node">
<title>q43</title>
<ellipse fill="none" stroke="black" cx="1060.55" cy="-177.2" rx="16.2" ry="16.2"/>
<text xml:space="preserve" text-anchor="middle" x="1060.55" y="-172.75" font-family="Helvetica,sans-Serif" font-size="11.00">q43</text>
</g>
<!-- q41&#45;&gt;q43 -->
<g id="edge50" class="edge">
<title>q41&#45;&gt;q43</title>
<path fill="none" stroke="#0f4c81" d="M1012.57,-177.2C1019.57,-177.2 1028.01,-177.2 1035.78,-177.2"/>
<polygon fill="#0f4c81" stroke="#0f4c81" points="1035.36,-179.65 1042.36,-177.2 1035.36,-174.75 1035.36,-179.65"/>
<text xml:space="preserve" text-anchor="middle" x="1028.35" y="-178.75" font-family="Helvetica,sans-Serif" font-size="11.00" fill="#0f4c81">1</text>
</g>
<!-- q44 -->
<g id="node47" class="node">
<title>q44</title>
<ellipse fill="none" stroke="black" cx="1060.55" cy="-127.2" rx="16.2" ry="16.2"/>
<text xml:space="preserve" text-anchor="middle" x="1060.55" y="-122.75" font-family="Helvetica,sans-Serif" font-size="11.00">q44</text>
</g>
<!-- q42&#45;&gt;q44 -->
<g id="edge51" class="edge">
<title>q42&#45;&gt;q44</title>
<path fill="none" stroke="#0f4c81" d="M1012.57,-127.2C1019.57,-127.2 1028.01,-127.2 1035.78,-127.2"/>
<polygon fill="#0f4c81" stroke="#0f4c81" points="1035.36,-129.65 1042.36,-127.2 1035.36,-124.75 1035.36,-129.65"/>
<text xml:space="preserve" text-anchor="middle" x="1028.35" y="-128.75" font-family="Helvetica,sans-Serif" font-size="11.00" fill="#0f4c81">2</text>
</g>
<!-- q45 -->
<g id="node48" class="node">
<title>q45</title>
<ellipse fill="none" stroke="black" cx="1124.95" cy="-177.2" rx="16.2" ry="16.2"/>
<text xml:space="preserve" text-anchor="middle" x="1124.95" y="-172.75" font-family="Helvetica,sans-Serif" font-size="11.00">q45</text>
</g>
<!-- q43&#45;&gt;q45 -->
<g id="edge52" class="edge">
<title>q43&#45;&gt;q45</title>
<path fill="none" stroke="#0f4c81" d="M1076.97,-177.2C1083.97,-177.2 1092.41,-177.2 1100.18,-177.2"/>
<polygon fill="#0f4c81" stroke="#0f4c81" points="1099.76,-179.65 1106.76,-177.2 1099.76,-174.75 1099.76,-179.65"/>
<text xml:space="preserve" text-anchor="middle" x="1092.75" y="-178.75" font-family="Helvetica,sans-Serif" font-size="11.00" fill="#0f4c81">9</text>
</g>
<!-- q46 -->
<g id="node49" class="node">
<title>q46</title>
<ellipse fill="none" stroke="black" cx="1124.95" cy="-127.2" rx="16.2" ry="16.2"/>
<text xml:space="preserve" text-anchor="middle" x="1124.95" y="-122.75" font-family="Helvetica,sans-Serif" font-size="11.00">q46</text>
</g>
<!-- q44&#45;&gt;q46 -->
<g id="edge53" class="edge">
<title>q44&#45;&gt;q46</title>
<path fill="none" stroke="#0f4c81" d="M1076.97,-127.2C1083.97,-127.2 1092.41,-127.2 1100.18,-127.2"/>
<polygon fill="#0f4c81" stroke="#0f4c81" points="1099.76,-129.65 1106.76,-127.2 1099.76,-124.75 1099.76,-129.65"/>
<text xml:space="preserve" text-anchor="middle" x="1092.75" y="-128.75" font-family="Helvetica,sans-Serif" font-size="11.00" fill="#0f4c81">0</text>
</g>
<!-- q47 -->
<g id="node50" class="node">
<title>q47</title>
<ellipse fill="none" stroke="black" cx="1189.35" cy="-151.2" rx="16.2" ry="16.2"/>
<text xml:space="preserve" text-anchor="middle" x="1189.35" y="-146.75" font-family="Helvetica,sans-Serif" font-size="11.00">q47</text>
</g>
<!-- q45&#45;&gt;q47 -->
<g id="edge54" class="edge">
<title>q45&#45;&gt;q47</title>
<path fill="none" stroke="#6b7280" stroke-dasharray="5,2" d="M1140.42,-171.17C1148.06,-167.99 1157.6,-164.01 1166.15,-160.45"/>
<polygon fill="#6b7280" stroke="#6b7280" points="1167.04,-162.73 1172.56,-157.78 1165.15,-158.21 1167.04,-162.73"/>
<text xml:space="preserve" text-anchor="middle" x="1157.15" y="-166.53" font-family="Helvetica,sans-Serif" font-size="11.00" fill="#6b7280">ε</text>
</g>
<!-- q46&#45;&gt;q47 -->
<g id="edge55" class="edge">
<title>q46&#45;&gt;q47</title>
<path fill="none" stroke="#6b7280" stroke-dasharray="5,2" d="M1140.67,-132.13C1146.74,-134.22 1153.81,-136.74 1160.15,-139.2 1162.15,-139.97 1164.21,-140.8 1166.28,-141.65"/>
<polygon fill="#6b7280" stroke="#6b7280" points="1165.28,-143.88 1172.68,-144.33 1167.17,-139.36 1165.28,-143.88"/>
<text xml:space="preserve" text-anchor="middle" x="1157.15" y="-140.75" font-family="Helvetica,sans-Serif" font-size="11.00" fill="#6b7280">ε</text>
</g>
<!-- q48 -->
<g id="node51" class="node">
<title>q48</title>
<ellipse fill="none" stroke="black" cx="1269.5" cy="-151.2" rx="16.2" ry="16.2"/>
<text xml:space="preserve" text-anchor="middle" x="1269.5" y="-146.75" font-family="Helvetica,sans-Serif" font-size="11.00">q48</text>
</g>
<!-- q47&#45;&gt;q48 -->
<g id="edge56" class="edge">
<title>q47&#45;&gt;q48</title>
<path fill="none" stroke="#0f4c81" d="M1205.79,-151.2C1216.85,-151.2 1231.96,-151.2 1244.57,-151.2"/>
<polygon fill="#0f4c81" stroke="#0f4c81" points="1244.31,-153.65 1251.31,-151.2 1244.31,-148.75 1244.31,-153.65"/>
<text xml:space="preserve" text-anchor="middle" x="1229.43" y="-152.75" font-family="Helvetica,sans-Serif" font-size="11.00" fill="#0f4c81">[0&#45;9]</text>
</g>
<!-- q48&#45;&gt;q49 -->
<g id="edge57" class="edge">
<title>q48&#45;&gt;q49</title>
<path fill="none" stroke="#0f4c81" d="M1285.95,-151.2C1296.93,-151.2 1311.98,-151.2 1325,-151.2"/>
<polygon fill="#0f4c81" stroke="#0f4c81" points="1324.69,-153.65 1331.69,-151.2 1324.69,-148.75 1324.69,-153.65"/>
<text xml:space="preserve" text-anchor="middle" x="1309.58" y="-152.75" font-family="Helvetica,sans-Serif" font-size="11.00" fill="#0f4c81">[0&#45;9]</text>
</g>
</g>
</svg>
