<?xml version="1.0" encoding="UTF-8" standalone="no"?>
<!DOCTYPE svg PUBLIC "-//W3C//DTD SVG 1.1//EN"
 "http://www.w3.org/Graphics/SVG/1.1/DTD/svg11.dtd">
<!-- Generated by graphviz version 16.1.0 (20260904.0139)
 -->
<!-- Title: ER&#45;02 Placa do veículo (padrão antigo ou Mercosul) Pages: 1 -->
<svg width="904pt" height="92pt"
 viewBox="0.00 0.00 904.00 92.00" xmlns="http://www.w3.org/2000/svg" xmlns:xlink="http://www.w3.org/1999/xlink">
<g id="graph0" class="graph" transform="scale(1 1) rotate(0) translate(4 87.84)">
<title>ER&#45;02 Placa do veículo (padrão antigo ou Mercosul)</title>
<polygon fill="white" stroke="none" points="-4,4 -4,-87.84 900.3,-87.84 900.3,4 -4,4"/>
<!-- inicio -->
<g id="node1" class="node">
<title>inicio</title>
<text xml:space="preserve" text-anchor="middle" x="19.62" y="-36.33" font-family="Helvetica,sans-Serif" font-size="10.00">início</text>
</g>
<!-- q0 -->
<g id="node2" class="node">
<title>q0</title>
<ellipse fill="none" stroke="black" cx="82.45" cy="-40.2" rx="16.2" ry="16.2"/>
<text xml:space="preserve" text-anchor="middle" x="82.45" y="-35.75" font-family="Helvetica,sans-Serif" font-size="11.00">q0</text>
</g>
<!-- inicio&#45;&gt;q0 -->
<g id="edge1" class="edge">
<title>inicio&#45;&gt;q0</title>
<path fill="none" stroke="black" d="M39.21,-40.2C44.93,-40.2 51.32,-40.2 57.37,-40.2"/>
<polygon fill="black" stroke="black" points="57.34,-42.65 64.34,-40.2 57.34,-37.75 57.34,-42.65"/>
</g>
<!-- q1 -->
<g id="node4" class="node">
<title>q1</title>
<ellipse fill="none" stroke="black" cx="164.85" cy="-40.2" rx="16.2" ry="16.2"/>
<text xml:space="preserve" text-anchor="middle" x="164.85" y="-35.75" font-family="Helvetica,sans-Serif" font-size="11.00">q1</text>
</g>
<!-- q0&#45;&gt;q1 -->
<g id="edge2" class="edge">
<title>q0&#45;&gt;q1</title>
<path fill="none" stroke="#0f4c81" d="M98.95,-40.2C110.63,-40.2 126.85,-40.2 140.15,-40.2"/>
<polygon fill="#0f4c81" stroke="#0f4c81" points="139.88,-42.65 146.88,-40.2 139.88,-37.75 139.88,-42.65"/>
<text xml:space="preserve" text-anchor="middle" x="123.65" y="-41.75" font-family="Helvetica,sans-Serif" font-size="11.00" fill="#0f4c81">[A&#45;Z]</text>
</g>
<!-- q15 -->
<g id="node3" class="node">
<title>q15</title>
<ellipse fill="none" stroke="black" cx="876.1" cy="-35.2" rx="16.2" ry="16.2"/>
<ellipse fill="none" stroke="black" cx="876.1" cy="-35.2" rx="20.2" ry="20.2"/>
<text xml:space="preserve" text-anchor="middle" x="876.1" y="-30.75" font-family="Helvetica,sans-Serif" font-size="11.00">q15</text>
</g>
<!-- q2 -->
<g id="node5" class="node">
<title>q2</title>
<ellipse fill="none" stroke="black" cx="247.25" cy="-40.2" rx="16.2" ry="16.2"/>
<text xml:space="preserve" text-anchor="middle" x="247.25" y="-35.75" font-family="Helvetica,sans-Serif" font-size="11.00">q2</text>
</g>
<!-- q1&#45;&gt;q2 -->
<g id="edge3" class="edge">
<title>q1&#45;&gt;q2</title>
<path fill="none" stroke="#0f4c81" d="M181.35,-40.2C193.03,-40.2 209.25,-40.2 222.55,-40.2"/>
<polygon fill="#0f4c81" stroke="#0f4c81" points="222.28,-42.65 229.28,-40.2 222.28,-37.75 222.28,-42.65"/>
<text xml:space="preserve" text-anchor="middle" x="206.05" y="-41.75" font-family="Helvetica,sans-Serif" font-size="11.00" fill="#0f4c81">[A&#45;Z]</text>
</g>
<!-- q3 -->
<g id="node6" class="node">
<title>q3</title>
<ellipse fill="none" stroke="black" cx="329.65" cy="-40.2" rx="16.2" ry="16.2"/>
<text xml:space="preserve" text-anchor="middle" x="329.65" y="-35.75" font-family="Helvetica,sans-Serif" font-size="11.00">q3</text>
</g>
<!-- q2&#45;&gt;q3 -->
<g id="edge4" class="edge">
<title>q2&#45;&gt;q3</title>
<path fill="none" stroke="#0f4c81" d="M263.75,-40.2C275.43,-40.2 291.65,-40.2 304.95,-40.2"/>
<polygon fill="#0f4c81" stroke="#0f4c81" points="304.68,-42.65 311.68,-40.2 304.68,-37.75 304.68,-42.65"/>
<text xml:space="preserve" text-anchor="middle" x="288.45" y="-41.75" font-family="Helvetica,sans-Serif" font-size="11.00" fill="#0f4c81">[A&#45;Z]</text>
</g>
<!-- q4 -->
<g id="node7" class="node">
<title>q4</title>
<ellipse fill="none" stroke="black" cx="394.05" cy="-66.2" rx="16.2" ry="16.2"/>
<text xml:space="preserve" text-anchor="middle" x="394.05" y="-61.75" font-family="Helvetica,sans-Serif" font-size="11.00">q4</text>
</g>
<!-- q3&#45;&gt;q4 -->
<g id="edge5" class="edge">
<title>q3&#45;&gt;q4</title>
<path fill="none" stroke="#6b7280" stroke-dasharray="5,2" d="M345.12,-46.23C352.76,-49.41 362.3,-53.39 370.85,-56.95"/>
<polygon fill="#6b7280" stroke="#6b7280" points="369.85,-59.19 377.26,-59.62 371.74,-54.67 369.85,-59.19"/>
<text xml:space="preserve" text-anchor="middle" x="361.85" y="-55.53" font-family="Helvetica,sans-Serif" font-size="11.00" fill="#6b7280">ε</text>
</g>
<!-- q5 -->
<g id="node8" class="node">
<title>q5</title>
<ellipse fill="none" stroke="black" cx="394.05" cy="-16.2" rx="16.2" ry="16.2"/>
<text xml:space="preserve" text-anchor="middle" x="394.05" y="-11.75" font-family="Helvetica,sans-Serif" font-size="11.00">q5</text>
</g>
<!-- q3&#45;&gt;q5 -->
<g id="edge6" class="edge">
<title>q3&#45;&gt;q5</title>
<path fill="none" stroke="#6b7280" stroke-dasharray="5,2" d="M344.92,-33.91C349.36,-32.02 354.29,-29.97 358.85,-28.2 362.61,-26.74 366.64,-25.26 370.55,-23.86"/>
<polygon fill="#6b7280" stroke="#6b7280" points="371.11,-26.26 376.9,-21.63 369.48,-21.64 371.11,-26.26"/>
<text xml:space="preserve" text-anchor="middle" x="361.85" y="-29.75" font-family="Helvetica,sans-Serif" font-size="11.00" fill="#6b7280">ε</text>
</g>
<!-- q6 -->
<g id="node9" class="node">
<title>q6</title>
<ellipse fill="none" stroke="black" cx="474.2" cy="-66.2" rx="16.2" ry="16.2"/>
<text xml:space="preserve" text-anchor="middle" x="474.2" y="-61.75" font-family="Helvetica,sans-Serif" font-size="11.00">q6</text>
</g>
<!-- q4&#45;&gt;q6 -->
<g id="edge7" class="edge">
<title>q4&#45;&gt;q6</title>
<path fill="none" stroke="#0f4c81" d="M410.21,-69.39C414.41,-70.14 418.99,-70.83 423.25,-71.2 432.88,-72.05 435.37,-72.05 445,-71.2 446.6,-71.06 448.24,-70.88 449.89,-70.66"/>
<polygon fill="#0f4c81" stroke="#0f4c81" points="450.01,-73.12 456.55,-69.62 449.26,-68.28 450.01,-73.12"/>
<text xml:space="preserve" text-anchor="middle" x="434.13" y="-73.39" font-family="Helvetica,sans-Serif" font-size="11.00" fill="#0f4c81">&#39;&#45;&#39;</text>
</g>
<!-- q4&#45;&gt;q6 -->
<g id="edge8" class="edge">
<title>q4&#45;&gt;q6</title>
<path fill="none" stroke="#6b7280" stroke-dasharray="5,2" d="M409.43,-60.04C413.79,-58.46 418.64,-56.99 423.25,-56.2 432.78,-54.56 435.47,-54.56 445,-56.2 447.02,-56.55 449.08,-57.02 451.13,-57.58"/>
<polygon fill="#6b7280" stroke="#6b7280" points="449.96,-59.78 457.38,-59.58 451.45,-55.11 449.96,-59.78"/>
<text xml:space="preserve" text-anchor="middle" x="434.13" y="-57.75" font-family="Helvetica,sans-Serif" font-size="11.00" fill="#6b7280">ε</text>
</g>
<!-- q7 -->
<g id="node10" class="node">
<title>q7</title>
<ellipse fill="none" stroke="black" cx="474.2" cy="-16.2" rx="16.2" ry="16.2"/>
<text xml:space="preserve" text-anchor="middle" x="474.2" y="-11.75" font-family="Helvetica,sans-Serif" font-size="11.00">q7</text>
</g>
<!-- q5&#45;&gt;q7 -->
<g id="edge9" class="edge">
<title>q5&#45;&gt;q7</title>
<path fill="none" stroke="#0f4c81" d="M410.49,-16.2C421.55,-16.2 436.66,-16.2 449.27,-16.2"/>
<polygon fill="#0f4c81" stroke="#0f4c81" points="449.01,-18.65 456.01,-16.2 449.01,-13.75 449.01,-18.65"/>
<text xml:space="preserve" text-anchor="middle" x="434.13" y="-17.75" font-family="Helvetica,sans-Serif" font-size="11.00" fill="#0f4c81">[0&#45;9]</text>
</g>
<!-- q8 -->
<g id="node11" class="node">
<title>q8</title>
<ellipse fill="none" stroke="black" cx="556.6" cy="-66.2" rx="16.2" ry="16.2"/>
<text xml:space="preserve" text-anchor="middle" x="556.6" y="-61.75" font-family="Helvetica,sans-Serif" font-size="11.00">q8</text>
</g>
<!-- q6&#45;&gt;q8 -->
<g id="edge10" class="edge">
<title>q6&#45;&gt;q8</title>
<path fill="none" stroke="#0f4c81" d="M490.7,-66.2C502.38,-66.2 518.6,-66.2 531.9,-66.2"/>
<polygon fill="#0f4c81" stroke="#0f4c81" points="531.63,-68.65 538.63,-66.2 531.63,-63.75 531.63,-68.65"/>
<text xml:space="preserve" text-anchor="middle" x="515.4" y="-67.75" font-family="Helvetica,sans-Serif" font-size="11.00" fill="#0f4c81">[0&#45;9]</text>
</g>
<!-- q9 -->
<g id="node12" class="node">
<title>q9</title>
<ellipse fill="none" stroke="black" cx="556.6" cy="-16.2" rx="16.2" ry="16.2"/>
<text xml:space="preserve" text-anchor="middle" x="556.6" y="-11.75" font-family="Helvetica,sans-Serif" font-size="11.00">q9</text>
</g>
<!-- q7&#45;&gt;q9 -->
<g id="edge11" class="edge">
<title>q7&#45;&gt;q9</title>
<path fill="none" stroke="#0f4c81" d="M490.7,-16.2C502.38,-16.2 518.6,-16.2 531.9,-16.2"/>
<polygon fill="#0f4c81" stroke="#0f4c81" points="531.63,-18.65 538.63,-16.2 531.63,-13.75 531.63,-18.65"/>
<text xml:space="preserve" text-anchor="middle" x="515.4" y="-17.75" font-family="Helvetica,sans-Serif" font-size="11.00" fill="#0f4c81">[A&#45;Z]</text>
</g>
<!-- q10 -->
<g id="node13" class="node">
<title>q10</title>
<ellipse fill="none" stroke="black" cx="636.75" cy="-66.2" rx="16.2" ry="16.2"/>
<text xml:space="preserve" text-anchor="middle" x="636.75" y="-61.75" font-family="Helvetica,sans-Serif" font-size="11.00">q10</text>
</g>
<!-- q8&#45;&gt;q10 -->
<g id="edge12" class="edge">
<title>q8&#45;&gt;q10</title>
<path fill="none" stroke="#0f4c81" d="M573.04,-66.2C584.1,-66.2 599.21,-66.2 611.82,-66.2"/>
<polygon fill="#0f4c81" stroke="#0f4c81" points="611.56,-68.65 618.56,-66.2 611.56,-63.75 611.56,-68.65"/>
<text xml:space="preserve" text-anchor="middle" x="596.68" y="-67.75" font-family="Helvetica,sans-Serif" font-size="11.00" fill="#0f4c81">[0&#45;9]</text>
</g>
<!-- q11 -->
<g id="node14" class="node">
<title>q11</title>
<ellipse fill="none" stroke="black" cx="636.75" cy="-16.2" rx="16.2" ry="16.2"/>
<text xml:space="preserve" text-anchor="middle" x="636.75" y="-11.75" font-family="Helvetica,sans-Serif" font-size="11.00">q11</text>
</g>
<!-- q9&#45;&gt;q11 -->
<g id="edge13" class="edge">
<title>q9&#45;&gt;q11</title>
<path fill="none" stroke="#0f4c81" d="M573.04,-16.2C584.1,-16.2 599.21,-16.2 611.82,-16.2"/>
<polygon fill="#0f4c81" stroke="#0f4c81" points="611.56,-18.65 618.56,-16.2 611.56,-13.75 611.56,-18.65"/>
<text xml:space="preserve" text-anchor="middle" x="596.68" y="-17.75" font-family="Helvetica,sans-Serif" font-size="11.00" fill="#0f4c81">[0&#45;9]</text>
</g>
<!-- q12 -->
<g id="node15" class="node">
<title>q12</title>
<ellipse fill="none" stroke="black" cx="716.9" cy="-65.2" rx="16.2" ry="16.2"/>
<text xml:space="preserve" text-anchor="middle" x="716.9" y="-60.75" font-family="Helvetica,sans-Serif" font-size="11.00">q12</text>
</g>
<!-- q10&#45;&gt;q12 -->
<g id="edge14" class="edge">
<title>q10&#45;&gt;q12</title>
<path fill="none" stroke="#0f4c81" d="M653.19,-66C664.25,-65.86 679.36,-65.67 691.97,-65.51"/>
<polygon fill="#0f4c81" stroke="#0f4c81" points="691.74,-67.96 698.71,-65.42 691.68,-63.06 691.74,-67.96"/>
<text xml:space="preserve" text-anchor="middle" x="676.83" y="-67.37" font-family="Helvetica,sans-Serif" font-size="11.00" fill="#0f4c81">[0&#45;9]</text>
</g>
<!-- q13 -->
<g id="node16" class="node">
<title>q13</title>
<ellipse fill="none" stroke="black" cx="762.3" cy="-19.2" rx="16.2" ry="16.2"/>
<text xml:space="preserve" text-anchor="middle" x="762.3" y="-14.75" font-family="Helvetica,sans-Serif" font-size="11.00">q13</text>
</g>
<!-- q11&#45;&gt;q13 -->
<g id="edge15" class="edge">
<title>q11&#45;&gt;q13</title>
<path fill="none" stroke="#0f4c81" d="M653.4,-16.58C674.56,-17.09 712.52,-18.02 737.3,-18.62"/>
<polygon fill="#0f4c81" stroke="#0f4c81" points="737.21,-21.07 744.27,-18.79 737.33,-16.17 737.21,-21.07"/>
<text xml:space="preserve" text-anchor="middle" x="676.83" y="-18.93" font-family="Helvetica,sans-Serif" font-size="11.00" fill="#0f4c81">[0&#45;9]</text>
</g>
<!-- q14 -->
<g id="node17" class="node">
<title>q14</title>
<ellipse fill="none" stroke="black" cx="807.7" cy="-65.2" rx="16.2" ry="16.2"/>
<text xml:space="preserve" text-anchor="middle" x="807.7" y="-60.75" font-family="Helvetica,sans-Serif" font-size="11.00">q14</text>
</g>
<!-- q12&#45;&gt;q14 -->
<g id="edge16" class="edge">
<title>q12&#45;&gt;q14</title>
<path fill="none" stroke="#0f4c81" d="M733.37,-65.2C747.04,-65.2 767.18,-65.2 782.9,-65.2"/>
<polygon fill="#0f4c81" stroke="#0f4c81" points="782.6,-67.65 789.6,-65.2 782.6,-62.75 782.6,-67.65"/>
<text xml:space="preserve" text-anchor="middle" x="762.3" y="-66.75" font-family="Helvetica,sans-Serif" font-size="11.00" fill="#0f4c81">[0&#45;9]</text>
</g>
<!-- q13&#45;&gt;q15 -->
<g id="edge17" class="edge">
<title>q13&#45;&gt;q15</title>
<path fill="none" stroke="#6b7280" stroke-dasharray="5,2" d="M778.85,-21.42C796.64,-23.97 826.13,-28.19 847.78,-31.29"/>
<polygon fill="#6b7280" stroke="#6b7280" points="847.17,-33.68 854.45,-32.24 847.86,-28.83 847.17,-33.68"/>
<text xml:space="preserve" text-anchor="middle" x="807.7" y="-29.09" font-family="Helvetica,sans-Serif" font-size="11.00" fill="#6b7280">ε</text>
</g>
<!-- q14&#45;&gt;q15 -->
<g id="edge18" class="edge">
<title>q14&#45;&gt;q15</title>
<path fill="none" stroke="#6b7280" stroke-dasharray="5,2" d="M822.78,-58.84C830.55,-55.33 840.45,-50.86 849.54,-46.75"/>
<polygon fill="#6b7280" stroke="#6b7280" points="850.49,-49.01 855.86,-43.89 848.47,-44.54 850.49,-49.01"/>
<text xml:space="preserve" text-anchor="middle" x="839.9" y="-53.55" font-family="Helvetica,sans-Serif" font-size="11.00" fill="#6b7280">ε</text>
</g>
</g>
</svg>
